<mxfile host="Electron" agent="Mozilla/5.0 (X11; Linux x86_64) AppleWebKit/537.36 (KHTML, like Gecko) draw.io/28.2.5 Chrome/138.0.7204.251 Electron/37.6.1 Safari/537.36" version="28.2.5">
  <diagram name="第 1 页" id="A2wYnKDMZFF023bxGnZ8">
    <mxGraphModel dx="2025" dy="1576" grid="1" gridSize="10" guides="1" tooltips="1" connect="1" arrows="1" fold="1" page="1" pageScale="1" pageWidth="827" pageHeight="1169" math="0" shadow="0">
      <root>
        <mxCell id="0" />
        <mxCell id="1" parent="0" />
        <mxCell id="lc5mf7nCTQjh2SExQ85K-13" value="" style="rounded=0;whiteSpace=wrap;html=1;" parent="1" vertex="1">
          <mxGeometry x="870" y="85" width="1380" height="445" as="geometry" />
        </mxCell>
        <mxCell id="1i7iyDztXm2SfSE6uJK3-13" value="&lt;div&gt;ConfigTreeConfigDataLocationResolver&lt;/div&gt;" style="html=1;whiteSpace=wrap;fontSize=20;verticalAlign=middle;align=center;fillColor=#ffe6cc;strokeColor=#d79b00;" parent="1" vertex="1">
          <mxGeometry x="900" y="365" width="400" height="51" as="geometry" />
        </mxCell>
        <mxCell id="mEVcy1A5f8fxIJjsYzMS-1" value="«interface»&lt;br&gt;ConfigDataLocationResolver" style="html=1;whiteSpace=wrap;fontSize=20;fontStyle=0;fillColor=#ffe6cc;strokeColor=#d79b00;" parent="1" vertex="1">
          <mxGeometry x="1415" y="185" width="310" height="50" as="geometry" />
        </mxCell>
        <mxCell id="fyX_qp0nPDoWCMaDwxBh-1" value="spring-boot&lt;div&gt;&lt;div&gt;&lt;br&gt;&lt;/div&gt;&lt;/div&gt;" style="shape=module;align=left;spacingLeft=20;align=center;verticalAlign=top;whiteSpace=wrap;html=1;fontSize=20;fillColor=#ffe6cc;strokeColor=#d79b00;" parent="1" vertex="1">
          <mxGeometry x="2020" y="125" width="160" height="50" as="geometry" />
        </mxCell>
        <mxCell id="fyX_qp0nPDoWCMaDwxBh-7" value="" style="endArrow=block;dashed=1;endFill=0;endSize=12;html=1;rounded=0;exitX=0.5;exitY=0;exitDx=0;exitDy=0;entryX=0.5;entryY=1;entryDx=0;entryDy=0;" parent="1" source="1i7iyDztXm2SfSE6uJK3-13" target="mEVcy1A5f8fxIJjsYzMS-1" edge="1">
          <mxGeometry width="160" relative="1" as="geometry">
            <mxPoint x="1420" y="325" as="sourcePoint" />
            <mxPoint x="1610" y="265" as="targetPoint" />
          </mxGeometry>
        </mxCell>
        <mxCell id="fyX_qp0nPDoWCMaDwxBh-10" value="&lt;div&gt;SystemEnvironmentConfigDataLocationResolver&lt;/div&gt;" style="html=1;whiteSpace=wrap;fontSize=20;verticalAlign=middle;align=center;fillColor=#ffe6cc;strokeColor=#d79b00;" parent="1" vertex="1">
          <mxGeometry x="1330" y="365" width="480" height="51" as="geometry" />
        </mxCell>
        <mxCell id="fyX_qp0nPDoWCMaDwxBh-11" value="" style="endArrow=block;dashed=1;endFill=0;endSize=12;html=1;rounded=0;exitX=0.5;exitY=0;exitDx=0;exitDy=0;entryX=0.5;entryY=1;entryDx=0;entryDy=0;" parent="1" source="fyX_qp0nPDoWCMaDwxBh-10" target="mEVcy1A5f8fxIJjsYzMS-1" edge="1">
          <mxGeometry width="160" relative="1" as="geometry">
            <mxPoint x="2000" y="355" as="sourcePoint" />
            <mxPoint x="2160" y="355" as="targetPoint" />
          </mxGeometry>
        </mxCell>
        <mxCell id="fyX_qp0nPDoWCMaDwxBh-12" value="&lt;div&gt;StandardConfigDataLocationResolver&lt;/div&gt;" style="html=1;whiteSpace=wrap;fontSize=20;verticalAlign=middle;align=center;fillColor=#ffe6cc;strokeColor=#d79b00;" parent="1" vertex="1">
          <mxGeometry x="1850" y="365" width="360" height="51" as="geometry" />
        </mxCell>
        <mxCell id="fyX_qp0nPDoWCMaDwxBh-13" value="" style="endArrow=block;dashed=1;endFill=0;endSize=12;html=1;rounded=0;exitX=0.5;exitY=0;exitDx=0;exitDy=0;entryX=0.5;entryY=1;entryDx=0;entryDy=0;" parent="1" source="fyX_qp0nPDoWCMaDwxBh-12" target="mEVcy1A5f8fxIJjsYzMS-1" edge="1">
          <mxGeometry width="160" relative="1" as="geometry">
            <mxPoint x="1910" y="275" as="sourcePoint" />
            <mxPoint x="2070" y="275" as="targetPoint" />
          </mxGeometry>
        </mxCell>
        <mxCell id="fyX_qp0nPDoWCMaDwxBh-18" value="META-INF/spring.factories中加载的&lt;span style=&quot;&quot;&gt;ConfigDataLocationResolver&lt;/span&gt;实现" style="text;html=1;align=center;verticalAlign=middle;whiteSpace=wrap;rounded=0;fontSize=20;fontStyle=1" parent="1" vertex="1">
          <mxGeometry x="1210" y="470" width="742.5" height="30" as="geometry" />
        </mxCell>
      </root>
    </mxGraphModel>
  </diagram>
</mxfile>
